# xmcd
#
# Track frame offsets: 
#        150
#        20802
#        44049
#        58471
#        73150
#        88262
#        102827
#        118742
#        133685
#        150738
#        169386
#        183101
#        195125
#        209959
#        241818
#        251124
#        262986
#        285045
#        302000
#        315630
#
# Disc length: 4417 seconds
#
# Revision: 0
# Processed by: cddbd v1.5.2PL0 Copyright (c) Steve Scherf et al.
# Submitted via: ExactAudioCopy v0.99pb3
#
DISCID=2c113f14
DTITLE=Ella Fitzgerald - At Her Very Best - CD 2
DYEAR=2008
DGENRE=Blues
TTITLE0=A Foggy Day
TTITLE1=Tenderly
TTITLE2=Smooth Sailing
TTITLE3=Oh, Lady Be Good
TTITLE4=How Long Has This been Going On
TTITLE5=Looking For a Boy
TTITLE6=Maybe
TTITLE7=Someone To Watch Over Me
TTITLE8=I Didn't Know What Time It Was
TTITLE9=It Never Entered My Mind
TTITLE10=Isn't It Romantic
TTITLE11=I Wish I Were In Love Again
TTITLE12=Lover
TTITLE13=Bewitched, Bothered and Bewildered
TTITLE14=What is This Thing Called Love
TTITLE15=In The Still of the Night
TTITLE16=I Love Paris
TTITLE17=Too Darn Hot
TTITLE18=Mist Otis Regrets
TTITLE19=Every Time We Say Goodby
EXTD=
EXTT0=
EXTT1=
EXTT2=
EXTT3=
EXTT4=
EXTT5=
EXTT6=
EXTT7=
EXTT8=
EXTT9=
EXTT10=
EXTT11=
EXTT12=
EXTT13=
EXTT14=
EXTT15=
EXTT16=
EXTT17=
EXTT18=
EXTT19=
PLAYORDER=
